<mxfile host="app.diagrams.net" agent="Mozilla/5.0 (Windows NT 10.0; Win64; x64) AppleWebKit/537.36 (KHTML, like Gecko) Chrome/137.0.0.0 Safari/537.36" version="27.1.6">
  <diagram id="C5RBs43oDa-KdzZeNtuy" name="Page-1">
    <mxGraphModel dx="1426" dy="743" grid="1" gridSize="10" guides="1" tooltips="1" connect="1" arrows="1" fold="1" page="1" pageScale="1" pageWidth="827" pageHeight="1169" math="0" shadow="0">
      <root>
        <mxCell id="WIyWlLk6GJQsqaUBKTNV-0" />
        <mxCell id="WIyWlLk6GJQsqaUBKTNV-1" parent="WIyWlLk6GJQsqaUBKTNV-0" />
        <mxCell id="Y_kDX2Lz7pwxeAP7cUDH-1" value="" style="edgeStyle=orthogonalEdgeStyle;rounded=0;orthogonalLoop=1;jettySize=auto;html=1;" parent="WIyWlLk6GJQsqaUBKTNV-1" source="WIyWlLk6GJQsqaUBKTNV-3" target="Y_kDX2Lz7pwxeAP7cUDH-0" edge="1">
          <mxGeometry relative="1" as="geometry" />
        </mxCell>
        <mxCell id="WIyWlLk6GJQsqaUBKTNV-3" value="Inicio" style="rounded=1;whiteSpace=wrap;html=1;fontSize=12;glass=0;strokeWidth=1;shadow=0;arcSize=50;" parent="WIyWlLk6GJQsqaUBKTNV-1" vertex="1">
          <mxGeometry x="320" y="40" width="120" height="40" as="geometry" />
        </mxCell>
        <mxCell id="Y_kDX2Lz7pwxeAP7cUDH-6" value="" style="edgeStyle=orthogonalEdgeStyle;rounded=0;orthogonalLoop=1;jettySize=auto;html=1;" parent="WIyWlLk6GJQsqaUBKTNV-1" source="Y_kDX2Lz7pwxeAP7cUDH-0" target="Y_kDX2Lz7pwxeAP7cUDH-4" edge="1">
          <mxGeometry relative="1" as="geometry" />
        </mxCell>
        <mxCell id="Y_kDX2Lz7pwxeAP7cUDH-0" value="first_id_rx = FALSE&lt;div&gt;trusted_senders = {}&lt;/div&gt;" style="rounded=1;whiteSpace=wrap;html=1;fontSize=12;glass=0;strokeWidth=1;shadow=0;arcSize=0;" parent="WIyWlLk6GJQsqaUBKTNV-1" vertex="1">
          <mxGeometry x="320" y="120" width="120" height="40" as="geometry" />
        </mxCell>
        <mxCell id="Y_kDX2Lz7pwxeAP7cUDH-5" value="" style="edgeStyle=orthogonalEdgeStyle;rounded=0;orthogonalLoop=1;jettySize=auto;html=1;entryX=0.5;entryY=0;entryDx=0;entryDy=0;" parent="WIyWlLk6GJQsqaUBKTNV-1" source="Y_kDX2Lz7pwxeAP7cUDH-4" target="Y_kDX2Lz7pwxeAP7cUDH-22" edge="1">
          <mxGeometry relative="1" as="geometry">
            <mxPoint x="380" y="280" as="targetPoint" />
          </mxGeometry>
        </mxCell>
        <mxCell id="Y_kDX2Lz7pwxeAP7cUDH-63" style="edgeStyle=orthogonalEdgeStyle;rounded=0;orthogonalLoop=1;jettySize=auto;html=1;exitX=1;exitY=0.5;exitDx=0;exitDy=0;startArrow=classic;startFill=1;endArrow=none;" parent="WIyWlLk6GJQsqaUBKTNV-1" source="Y_kDX2Lz7pwxeAP7cUDH-4" edge="1">
          <mxGeometry relative="1" as="geometry">
            <mxPoint x="420" y="800" as="targetPoint" />
            <Array as="points">
              <mxPoint x="800" y="220" />
              <mxPoint x="800" y="840" />
              <mxPoint x="420" y="840" />
            </Array>
          </mxGeometry>
        </mxCell>
        <mxCell id="Y_kDX2Lz7pwxeAP7cUDH-4" value="read msg" style="rounded=1;whiteSpace=wrap;html=1;fontSize=12;glass=0;strokeWidth=1;shadow=0;arcSize=0;" parent="WIyWlLk6GJQsqaUBKTNV-1" vertex="1">
          <mxGeometry x="320" y="200" width="120" height="40" as="geometry" />
        </mxCell>
        <mxCell id="Y_kDX2Lz7pwxeAP7cUDH-25" style="edgeStyle=orthogonalEdgeStyle;rounded=0;orthogonalLoop=1;jettySize=auto;html=1;exitX=0;exitY=0.5;exitDx=0;exitDy=0;entryX=1;entryY=0.5;entryDx=0;entryDy=0;" parent="WIyWlLk6GJQsqaUBKTNV-1" source="Y_kDX2Lz7pwxeAP7cUDH-22" target="Y_kDX2Lz7pwxeAP7cUDH-24" edge="1">
          <mxGeometry relative="1" as="geometry" />
        </mxCell>
        <mxCell id="Y_kDX2Lz7pwxeAP7cUDH-36" style="edgeStyle=orthogonalEdgeStyle;rounded=0;orthogonalLoop=1;jettySize=auto;html=1;exitX=1;exitY=0.5;exitDx=0;exitDy=0;entryX=0;entryY=0.5;entryDx=0;entryDy=0;" parent="WIyWlLk6GJQsqaUBKTNV-1" source="Y_kDX2Lz7pwxeAP7cUDH-22" target="Y_kDX2Lz7pwxeAP7cUDH-38" edge="1">
          <mxGeometry relative="1" as="geometry">
            <mxPoint x="480" y="320" as="targetPoint" />
          </mxGeometry>
        </mxCell>
        <mxCell id="Y_kDX2Lz7pwxeAP7cUDH-22" value="first_id_rx?" style="rhombus;whiteSpace=wrap;html=1;" parent="WIyWlLk6GJQsqaUBKTNV-1" vertex="1">
          <mxGeometry x="340" y="280" width="80" height="80" as="geometry" />
        </mxCell>
        <mxCell id="Y_kDX2Lz7pwxeAP7cUDH-28" style="edgeStyle=orthogonalEdgeStyle;rounded=0;orthogonalLoop=1;jettySize=auto;html=1;entryX=0.5;entryY=0;entryDx=0;entryDy=0;exitX=0.5;exitY=1;exitDx=0;exitDy=0;" parent="WIyWlLk6GJQsqaUBKTNV-1" source="Y_kDX2Lz7pwxeAP7cUDH-24" target="Y_kDX2Lz7pwxeAP7cUDH-27" edge="1">
          <mxGeometry relative="1" as="geometry">
            <mxPoint x="210" y="320" as="sourcePoint" />
          </mxGeometry>
        </mxCell>
        <mxCell id="Y_kDX2Lz7pwxeAP7cUDH-34" style="edgeStyle=orthogonalEdgeStyle;rounded=0;orthogonalLoop=1;jettySize=auto;html=1;exitX=0;exitY=0.5;exitDx=0;exitDy=0;" parent="WIyWlLk6GJQsqaUBKTNV-1" source="Y_kDX2Lz7pwxeAP7cUDH-24" edge="1">
          <mxGeometry relative="1" as="geometry">
            <mxPoint x="120" y="800" as="targetPoint" />
          </mxGeometry>
        </mxCell>
        <mxCell id="Y_kDX2Lz7pwxeAP7cUDH-24" value="TC == ID?" style="rhombus;whiteSpace=wrap;html=1;" parent="WIyWlLk6GJQsqaUBKTNV-1" vertex="1">
          <mxGeometry x="210" y="280" width="80" height="80" as="geometry" />
        </mxCell>
        <mxCell id="Y_kDX2Lz7pwxeAP7cUDH-26" value="NO" style="text;html=1;align=center;verticalAlign=middle;resizable=0;points=[];autosize=1;strokeColor=none;fillColor=none;" parent="WIyWlLk6GJQsqaUBKTNV-1" vertex="1">
          <mxGeometry x="300" y="298" width="40" height="30" as="geometry" />
        </mxCell>
        <mxCell id="Y_kDX2Lz7pwxeAP7cUDH-33" style="edgeStyle=orthogonalEdgeStyle;rounded=0;orthogonalLoop=1;jettySize=auto;html=1;exitX=0.5;exitY=1;exitDx=0;exitDy=0;" parent="WIyWlLk6GJQsqaUBKTNV-1" source="Y_kDX2Lz7pwxeAP7cUDH-27" edge="1">
          <mxGeometry relative="1" as="geometry">
            <mxPoint x="250" y="800" as="targetPoint" />
          </mxGeometry>
        </mxCell>
        <mxCell id="Y_kDX2Lz7pwxeAP7cUDH-27" value="first_id_rx&amp;nbsp;= TRUE" style="whiteSpace=wrap;html=1;" parent="WIyWlLk6GJQsqaUBKTNV-1" vertex="1">
          <mxGeometry x="190" y="400" width="120" height="40" as="geometry" />
        </mxCell>
        <mxCell id="Y_kDX2Lz7pwxeAP7cUDH-29" value="YES" style="text;html=1;align=center;verticalAlign=middle;resizable=0;points=[];autosize=1;strokeColor=none;fillColor=none;" parent="WIyWlLk6GJQsqaUBKTNV-1" vertex="1">
          <mxGeometry x="240" y="360" width="50" height="30" as="geometry" />
        </mxCell>
        <mxCell id="Y_kDX2Lz7pwxeAP7cUDH-32" value="" style="endArrow=none;html=1;rounded=0;strokeWidth=4;" parent="WIyWlLk6GJQsqaUBKTNV-1" edge="1">
          <mxGeometry width="50" height="50" relative="1" as="geometry">
            <mxPoint x="54" y="800" as="sourcePoint" />
            <mxPoint x="774" y="800" as="targetPoint" />
            <Array as="points">
              <mxPoint x="314" y="800" />
            </Array>
          </mxGeometry>
        </mxCell>
        <mxCell id="Y_kDX2Lz7pwxeAP7cUDH-35" value="NO" style="text;html=1;align=center;verticalAlign=middle;resizable=0;points=[];autosize=1;strokeColor=none;fillColor=none;" parent="WIyWlLk6GJQsqaUBKTNV-1" vertex="1">
          <mxGeometry x="160" y="298" width="40" height="30" as="geometry" />
        </mxCell>
        <mxCell id="Y_kDX2Lz7pwxeAP7cUDH-37" value="YES" style="text;html=1;align=center;verticalAlign=middle;resizable=0;points=[];autosize=1;strokeColor=none;fillColor=none;" parent="WIyWlLk6GJQsqaUBKTNV-1" vertex="1">
          <mxGeometry x="420" y="298" width="50" height="30" as="geometry" />
        </mxCell>
        <mxCell id="Y_kDX2Lz7pwxeAP7cUDH-42" style="edgeStyle=orthogonalEdgeStyle;rounded=0;orthogonalLoop=1;jettySize=auto;html=1;exitX=1;exitY=0.5;exitDx=0;exitDy=0;entryX=0;entryY=0.5;entryDx=0;entryDy=0;" parent="WIyWlLk6GJQsqaUBKTNV-1" source="Y_kDX2Lz7pwxeAP7cUDH-38" target="Y_kDX2Lz7pwxeAP7cUDH-41" edge="1">
          <mxGeometry relative="1" as="geometry">
            <mxPoint x="630" y="320" as="targetPoint" />
          </mxGeometry>
        </mxCell>
        <mxCell id="Y_kDX2Lz7pwxeAP7cUDH-46" style="edgeStyle=orthogonalEdgeStyle;rounded=0;orthogonalLoop=1;jettySize=auto;html=1;entryX=0.5;entryY=0;entryDx=0;entryDy=0;" parent="WIyWlLk6GJQsqaUBKTNV-1" source="Y_kDX2Lz7pwxeAP7cUDH-38" target="Y_kDX2Lz7pwxeAP7cUDH-45" edge="1">
          <mxGeometry relative="1" as="geometry" />
        </mxCell>
        <mxCell id="Y_kDX2Lz7pwxeAP7cUDH-38" value="TC == ID?" style="rhombus;whiteSpace=wrap;html=1;" parent="WIyWlLk6GJQsqaUBKTNV-1" vertex="1">
          <mxGeometry x="470" y="280" width="80" height="80" as="geometry" />
        </mxCell>
        <mxCell id="Y_kDX2Lz7pwxeAP7cUDH-40" value="NO" style="text;html=1;align=center;verticalAlign=middle;resizable=0;points=[];autosize=1;strokeColor=none;fillColor=none;" parent="WIyWlLk6GJQsqaUBKTNV-1" vertex="1">
          <mxGeometry x="550" y="298" width="40" height="30" as="geometry" />
        </mxCell>
        <mxCell id="Y_kDX2Lz7pwxeAP7cUDH-62" style="edgeStyle=orthogonalEdgeStyle;rounded=0;orthogonalLoop=1;jettySize=auto;html=1;exitX=1;exitY=0.5;exitDx=0;exitDy=0;" parent="WIyWlLk6GJQsqaUBKTNV-1" source="Y_kDX2Lz7pwxeAP7cUDH-41" edge="1">
          <mxGeometry relative="1" as="geometry">
            <mxPoint x="760" y="799.9999999999998" as="targetPoint" />
          </mxGeometry>
        </mxCell>
        <mxCell id="Y_kDX2Lz7pwxeAP7cUDH-41" value="save msg to buff" style="whiteSpace=wrap;html=1;" parent="WIyWlLk6GJQsqaUBKTNV-1" vertex="1">
          <mxGeometry x="600" y="300" width="120" height="40" as="geometry" />
        </mxCell>
        <mxCell id="Y_kDX2Lz7pwxeAP7cUDH-43" value="YES" style="text;html=1;align=center;verticalAlign=middle;resizable=0;points=[];autosize=1;strokeColor=none;fillColor=none;" parent="WIyWlLk6GJQsqaUBKTNV-1" vertex="1">
          <mxGeometry x="460" y="360" width="50" height="30" as="geometry" />
        </mxCell>
        <mxCell id="Y_kDX2Lz7pwxeAP7cUDH-48" style="edgeStyle=orthogonalEdgeStyle;rounded=0;orthogonalLoop=1;jettySize=auto;html=1;exitX=0.5;exitY=1;exitDx=0;exitDy=0;entryX=0.5;entryY=0;entryDx=0;entryDy=0;" parent="WIyWlLk6GJQsqaUBKTNV-1" source="Y_kDX2Lz7pwxeAP7cUDH-45" target="Y_kDX2Lz7pwxeAP7cUDH-47" edge="1">
          <mxGeometry relative="1" as="geometry" />
        </mxCell>
        <mxCell id="Y_kDX2Lz7pwxeAP7cUDH-45" value="chacha20 from buffer" style="whiteSpace=wrap;html=1;" parent="WIyWlLk6GJQsqaUBKTNV-1" vertex="1">
          <mxGeometry x="450" y="400" width="120" height="40" as="geometry" />
        </mxCell>
        <mxCell id="Y_kDX2Lz7pwxeAP7cUDH-49" style="edgeStyle=orthogonalEdgeStyle;rounded=0;orthogonalLoop=1;jettySize=auto;html=1;exitX=0.5;exitY=1;exitDx=0;exitDy=0;entryX=0.5;entryY=0;entryDx=0;entryDy=0;" parent="WIyWlLk6GJQsqaUBKTNV-1" source="Y_kDX2Lz7pwxeAP7cUDH-47" target="Y_kDX2Lz7pwxeAP7cUDH-50" edge="1">
          <mxGeometry relative="1" as="geometry">
            <mxPoint x="510" y="560" as="targetPoint" />
          </mxGeometry>
        </mxCell>
        <mxCell id="Y_kDX2Lz7pwxeAP7cUDH-47" value="crc32 from chacha20" style="whiteSpace=wrap;html=1;" parent="WIyWlLk6GJQsqaUBKTNV-1" vertex="1">
          <mxGeometry x="450" y="480" width="120" height="40" as="geometry" />
        </mxCell>
        <mxCell id="Y_kDX2Lz7pwxeAP7cUDH-52" style="edgeStyle=orthogonalEdgeStyle;rounded=0;orthogonalLoop=1;jettySize=auto;html=1;exitX=0.5;exitY=1;exitDx=0;exitDy=0;entryX=0.5;entryY=0;entryDx=0;entryDy=0;" parent="WIyWlLk6GJQsqaUBKTNV-1" source="Y_kDX2Lz7pwxeAP7cUDH-50" target="Y_kDX2Lz7pwxeAP7cUDH-51" edge="1">
          <mxGeometry relative="1" as="geometry" />
        </mxCell>
        <mxCell id="Y_kDX2Lz7pwxeAP7cUDH-50" value="clear buff" style="whiteSpace=wrap;html=1;" parent="WIyWlLk6GJQsqaUBKTNV-1" vertex="1">
          <mxGeometry x="450" y="560" width="120" height="40" as="geometry" />
        </mxCell>
        <mxCell id="Y_kDX2Lz7pwxeAP7cUDH-55" style="edgeStyle=orthogonalEdgeStyle;rounded=0;orthogonalLoop=1;jettySize=auto;html=1;exitX=1;exitY=0.5;exitDx=0;exitDy=0;entryX=0.5;entryY=0;entryDx=0;entryDy=0;" parent="WIyWlLk6GJQsqaUBKTNV-1" source="Y_kDX2Lz7pwxeAP7cUDH-51" target="Y_kDX2Lz7pwxeAP7cUDH-54" edge="1">
          <mxGeometry relative="1" as="geometry" />
        </mxCell>
        <mxCell id="Y_kDX2Lz7pwxeAP7cUDH-58" style="edgeStyle=orthogonalEdgeStyle;rounded=0;orthogonalLoop=1;jettySize=auto;html=1;exitX=0;exitY=0.5;exitDx=0;exitDy=0;entryX=0.5;entryY=0;entryDx=0;entryDy=0;" parent="WIyWlLk6GJQsqaUBKTNV-1" source="Y_kDX2Lz7pwxeAP7cUDH-51" target="Y_kDX2Lz7pwxeAP7cUDH-57" edge="1">
          <mxGeometry relative="1" as="geometry" />
        </mxCell>
        <mxCell id="Y_kDX2Lz7pwxeAP7cUDH-51" value="crc32&amp;nbsp;&lt;div&gt;match?&lt;/div&gt;" style="rhombus;whiteSpace=wrap;html=1;" parent="WIyWlLk6GJQsqaUBKTNV-1" vertex="1">
          <mxGeometry x="470" y="640" width="80" height="80" as="geometry" />
        </mxCell>
        <mxCell id="Y_kDX2Lz7pwxeAP7cUDH-61" style="edgeStyle=orthogonalEdgeStyle;rounded=0;orthogonalLoop=1;jettySize=auto;html=1;exitX=0.5;exitY=1;exitDx=0;exitDy=0;" parent="WIyWlLk6GJQsqaUBKTNV-1" source="Y_kDX2Lz7pwxeAP7cUDH-54" edge="1">
          <mxGeometry relative="1" as="geometry">
            <mxPoint x="650.047619047619" y="800" as="targetPoint" />
          </mxGeometry>
        </mxCell>
        <mxCell id="Y_kDX2Lz7pwxeAP7cUDH-54" value="add sender to trusted_senders" style="whiteSpace=wrap;html=1;" parent="WIyWlLk6GJQsqaUBKTNV-1" vertex="1">
          <mxGeometry x="590" y="720" width="120" height="40" as="geometry" />
        </mxCell>
        <mxCell id="Y_kDX2Lz7pwxeAP7cUDH-56" value="YES" style="text;html=1;align=center;verticalAlign=middle;resizable=0;points=[];autosize=1;strokeColor=none;fillColor=none;" parent="WIyWlLk6GJQsqaUBKTNV-1" vertex="1">
          <mxGeometry x="580" y="658" width="50" height="30" as="geometry" />
        </mxCell>
        <mxCell id="Y_kDX2Lz7pwxeAP7cUDH-60" style="edgeStyle=orthogonalEdgeStyle;rounded=0;orthogonalLoop=1;jettySize=auto;html=1;exitX=0.5;exitY=1;exitDx=0;exitDy=0;" parent="WIyWlLk6GJQsqaUBKTNV-1" source="Y_kDX2Lz7pwxeAP7cUDH-57" edge="1">
          <mxGeometry relative="1" as="geometry">
            <mxPoint x="370.04761904761904" y="800" as="targetPoint" />
          </mxGeometry>
        </mxCell>
        <mxCell id="Y_kDX2Lz7pwxeAP7cUDH-57" value="remove sender from trusted_senders" style="whiteSpace=wrap;html=1;" parent="WIyWlLk6GJQsqaUBKTNV-1" vertex="1">
          <mxGeometry x="310" y="720" width="120" height="40" as="geometry" />
        </mxCell>
        <mxCell id="Y_kDX2Lz7pwxeAP7cUDH-59" value="NO" style="text;html=1;align=center;verticalAlign=middle;resizable=0;points=[];autosize=1;strokeColor=none;fillColor=none;" parent="WIyWlLk6GJQsqaUBKTNV-1" vertex="1">
          <mxGeometry x="410" y="658" width="40" height="30" as="geometry" />
        </mxCell>
      </root>
    </mxGraphModel>
  </diagram>
</mxfile>
